<?xml version="1.0" encoding="UTF-8"?>
<svg xmlns="http://www.w3.org/2000/svg" width="1200" height="240" viewBox="0 0 1200 240" fill="none" role="img" aria-labelledby="title desc">
  <title>codegeist.ai logo</title>
  <desc>Directed Bus horizontal logo for codegeist.ai</desc>
  <g transform="translate(48.000,52.000) scale(2.125000)">
      <circle cx="8" cy="18" r="3.5" fill="#59E7FF"/>
      <circle cx="8" cy="32" r="3.5" fill="#3CB8FF"/>
      <circle cx="8" cy="46" r="3.5" fill="#7A6BFF"/>
      <path d="M11.5 18 H24 L31 11 H42" fill="none" stroke="#59E7FF" stroke-width="4.5" stroke-linecap="round" stroke-linejoin="round"/>
      <path d="M11.5 32 H42" fill="none" stroke="#3CB8FF" stroke-width="4.5" stroke-linecap="round" stroke-linejoin="round"/>
      <path d="M11.5 46 H24 L31 53 H42" fill="none" stroke="#7A6BFF" stroke-width="4.5" stroke-linecap="round" stroke-linejoin="round"/>
      <path d="M44 24 L58 32 L44 40 Z" fill="#3CB8FF"/>
    </g><g><path d="M322 -10Q199 -10 134.5 57.5Q70 125 70 266Q70 413 138.5 482.5Q207 552 328 552Q370 552 411.0 544.0Q452 536 491 518L454 421Q420 437 392.0 443.0Q364 449 337 449Q192 449 192 270Q192 177 229.5 135.5Q267 94 336 94Q369 94 405.0 103.0Q441 112 477 132V24Q440 5 400.5 -2.5Q361 -10 322 -10Z" transform="translate(214.000,155.696) scale(0.092000,-0.092000)" fill="#0B1020"/><path d="M283 -10Q169 -10 105.0 66.0Q41 142 41 272Q41 401 105.0 477.0Q169 553 282 553Q390 553 456.0 480.0Q522 407 522 270Q522 141 460.0 65.5Q398 -10 283 -10ZM283 90Q343 90 371.5 137.0Q400 184 400 271Q400 358 371.5 405.0Q343 452 283 452Q221 452 192.0 404.5Q163 357 163 271Q163 186 192.5 138.0Q222 90 283 90Z" transform="translate(264.196,155.696) scale(0.092000,-0.092000)" fill="#0B1020"/><path d="M235 -10Q138 -10 89.5 66.5Q41 143 41 271Q41 399 91.0 475.5Q141 552 243 552Q294 552 330.5 531.0Q367 510 390 473H395Q386 522 386 573V760H504V0H413L390 71H385Q361 33 323.5 11.5Q286 -10 235 -10ZM280 92Q339 92 366.0 134.0Q393 176 393 252V269Q393 323 383.5 364.0Q374 405 350.0 428.0Q326 451 283 451Q164 451 164 266Q164 176 192.5 134.0Q221 92 280 92Z" transform="translate(314.392,155.696) scale(0.092000,-0.092000)" fill="#0B1020"/><path d="M321 -10Q192 -10 120.0 63.0Q48 136 48 271Q48 402 112.5 477.0Q177 552 291 552Q396 552 455.5 486.0Q515 420 515 302V239H169Q172 163 216.5 127.0Q261 91 332 91Q375 91 415.0 102.0Q455 113 494 131V28Q417 -10 321 -10ZM401 327Q400 388 370.5 421.5Q341 455 292 455Q242 455 209.5 422.0Q177 389 171 327Z" transform="translate(364.588,155.696) scale(0.092000,-0.092000)" fill="#0B1020"/><path d="M250 -245Q205 -245 161.0 -237.0Q117 -229 74 -211V-99Q119 -120 165.0 -131.0Q211 -142 252 -142Q322 -141 353.0 -108.0Q384 -75 384 -11V5Q384 36 387 67H383Q358 26 322.5 8.0Q287 -10 241 -10Q147 -10 94.0 64.0Q41 138 41 270Q41 403 94.0 478.0Q147 553 239 553Q332 553 385 473H389L407 542H504V-6Q504 -122 442.5 -183.5Q381 -245 250 -245ZM281 92Q391 92 391 250V269Q391 365 363.0 408.0Q335 451 279 451Q221 451 192.5 404.5Q164 358 164 271Q164 183 193.0 137.5Q222 92 281 92Z" transform="translate(414.784,155.696) scale(0.092000,-0.092000)" fill="#0B1020"/><path d="M321 -10Q192 -10 120.0 63.0Q48 136 48 271Q48 402 112.5 477.0Q177 552 291 552Q396 552 455.5 486.0Q515 420 515 302V239H169Q172 163 216.5 127.0Q261 91 332 91Q375 91 415.0 102.0Q455 113 494 131V28Q417 -10 321 -10ZM401 327Q400 388 370.5 421.5Q341 455 292 455Q242 455 209.5 422.0Q177 389 171 327Z" transform="translate(464.980,155.696) scale(0.092000,-0.092000)" fill="#0B1020"/><path d="M291 619Q256 619 236.0 638.0Q216 657 216 694Q216 770 292 770Q367 770 367 695Q367 619 291 619ZM66 0V80L235 99V443L85 457V542H354V99L506 80V0Z" transform="translate(515.176,155.696) scale(0.092000,-0.092000)" fill="#0B1020"/><path d="M256 -10Q209 -10 165.0 -2.5Q121 5 82 23V134Q120 116 167.5 103.5Q215 91 267 91Q362 91 362 148Q362 168 349.0 180.5Q336 193 308.5 206.0Q281 219 236 239Q191 259 157.0 279.0Q123 299 104.5 327.0Q86 355 86 399Q86 477 142.5 514.5Q199 552 294 552Q341 552 386.0 542.5Q431 533 476 513L439 420Q399 437 363.5 445.0Q328 453 292 453Q206 453 206 403Q206 375 235.0 359.5Q264 344 329 316Q374 298 409.0 278.0Q444 258 463.5 228.0Q483 198 483 150Q483 -10 256 -10Z" transform="translate(565.372,155.696) scale(0.092000,-0.092000)" fill="#0B1020"/><path d="M370 -10Q276 -10 226.0 32.5Q176 75 176 174V441H48V514L184 543L210 681H296V542H495V441H295V189Q295 134 320.0 113.0Q345 92 392 92Q415 92 442.0 96.5Q469 101 501 108V10Q436 -10 370 -10Z" transform="translate(615.568,155.696) scale(0.092000,-0.092000)" fill="#0B1020"/><path d="M282 -11Q247 -11 226.5 9.0Q206 29 206 68Q206 107 226.0 126.5Q246 146 282 146Q316 146 336.5 126.5Q357 107 357 68Q357 30 336.0 9.5Q315 -11 282 -11Z" transform="translate(665.764,155.696) scale(0.092000,-0.092000)" fill="#0B1020"/><path d="M220 -10Q143 -10 99.5 33.0Q56 76 56 154Q56 242 112.0 285.0Q168 328 275 331L383 334V358Q383 409 354.0 431.0Q325 453 273 453Q205 453 128 416L87 504Q131 527 177.5 539.5Q224 552 280 552Q385 552 440.5 505.5Q496 459 496 363V0H407L386 72H383Q349 29 309.5 9.5Q270 -10 220 -10ZM258 89Q308 89 345.5 120.0Q383 151 383 210V257L306 254Q174 250 174 163Q174 124 198.0 106.5Q222 89 258 89Z" transform="translate(715.960,155.696) scale(0.092000,-0.092000)" fill="#0B1020"/><path d="M291 619Q256 619 236.0 638.0Q216 657 216 694Q216 770 292 770Q367 770 367 695Q367 619 291 619ZM66 0V80L235 99V443L85 457V542H354V99L506 80V0Z" transform="translate(766.156,155.696) scale(0.092000,-0.092000)" fill="#0B1020"/></g>
</svg>
